<svg width="20" height="20" viewBox="0 0 20 20" fill="none" xmlns="http://www.w3.org/2000/svg">
<path opacity="0.4" d="M10.9763 1.11374L13.2028 5.58801C13.3668 5.91218 13.6799 6.13729 14.041 6.18732L19.042 6.91569C19.3341 6.95671 19.5992 7.11079 19.7782 7.3459C19.9552 7.57802 20.0312 7.87217 19.9882 8.16132C19.9532 8.40144 19.8402 8.62355 19.6672 8.79364L16.0434 12.3064C15.7783 12.5516 15.6583 12.9147 15.7223 13.2699L16.6145 18.2084C16.7095 18.8047 16.3144 19.367 15.7223 19.4801C15.4783 19.5191 15.2282 19.4781 15.0082 19.366L10.5472 17.0418C10.2161 16.8748 9.82505 16.8748 9.49398 17.0418L5.03303 19.366C4.48491 19.6572 3.80576 19.4591 3.5007 18.9188C3.38767 18.7037 3.34766 18.4586 3.38467 18.2194L4.27686 13.2799C4.34088 12.9257 4.21985 12.5606 3.95579 12.3154L0.332017 8.80465C-0.0990758 8.38843 -0.112079 7.70309 0.30301 7.27187C0.312012 7.26286 0.322015 7.25286 0.332017 7.24285C0.504054 7.06776 0.730102 6.95671 0.974155 6.92769L5.97523 6.19832C6.33531 6.1473 6.64837 5.92418 6.81341 5.59802L8.95987 1.11374C9.15091 0.729541 9.547 0.490419 9.97709 0.500424H10.1111C10.4842 0.545447 10.8093 0.776565 10.9763 1.11374Z" fill="black"/>
<path d="M9.99201 16.9172C9.79831 16.9232 9.6096 16.9753 9.43987 17.0684L5.00072 19.3873C4.45756 19.6465 3.80756 19.4453 3.50303 18.9259C3.39021 18.7137 3.34927 18.4705 3.38721 18.2323L4.27384 13.3033C4.33375 12.945 4.21394 12.5807 3.95334 12.3285L0.327937 8.8186C-0.102398 8.39725 -0.110386 7.70569 0.310963 7.27433C0.316954 7.26833 0.321947 7.26332 0.327937 7.25832C0.499672 7.08818 0.72133 6.97609 0.959961 6.94106L5.96523 6.20446C6.32767 6.15842 6.64219 5.93223 6.80194 5.60396L8.97758 1.06324C9.18426 0.69694 9.58065 0.478761 10 0.50178C9.99201 0.799024 9.99201 16.7151 9.99201 16.9172Z" fill="black"/>
</svg>
